<svg width="220" height="72" viewBox="0 0 220 72" fill="none" xmlns="http://www.w3.org/2000/svg">
<path d="M13.2767 52.2935C9.65656 52.2935 6.90686 55.1429 6.90686 58.8993C6.90686 62.6557 9.65656 65.5722 13.2767 65.5722C15.221 65.5722 17.4684 64.5004 19.1096 62.8225L22.6973 66.6786C20.1835 69.3266 16.4271 71.037 12.9411 71.037C5.86759 71.037 0.604126 65.8732 0.604126 58.9664C0.604126 52.0596 6.00182 47.0972 13.1771 47.0972C16.663 47.0972 20.3177 48.6388 22.6647 51.12L19.1117 55.3788C17.5701 53.5016 15.3227 52.2935 13.2788 52.2935" fill="#19233E"/>
<path d="M38.1541 47.266H32.0182V70.7686H38.1541V47.266Z" fill="#19233E"/>
<path d="M55.5532 47.266V65.5376H65.5107V70.7686H49.4173V47.266H55.5532Z" fill="#19233E"/>
<path d="M94.8808 53.1986C94.8808 55.6452 93.3046 57.6241 90.8234 58.2953C93.807 58.8993 95.6516 61.2117 95.6516 64.2299C95.6516 68.2527 92.1311 70.7686 86.5992 70.7686H74.9984V47.266H86.1619C91.4925 47.266 94.8788 49.5784 94.8788 53.2006M88.576 54.2724C88.576 52.865 87.5368 52.0251 85.8263 52.0596H81.1323V56.6194H85.8263C87.5368 56.6194 88.576 55.7469 88.576 54.2724ZM89.3143 63.4591C89.3143 61.9846 87.972 61.045 85.8263 61.0795H81.1323V66.0074H85.8263C87.972 66.0074 89.3143 65.0678 89.3143 63.4591Z" fill="#19233E"/>
<path d="M119.823 70.7686L116.402 64.2645H111.843V70.7686H105.707V47.266H116.268C122.504 47.266 126.059 50.2841 126.059 55.513C126.059 59.0661 124.584 61.6815 121.869 63.091L126.765 70.7686H119.825H119.823ZM111.843 59.3691H116.303C118.784 59.3691 120.226 58.096 120.226 55.7144C120.226 53.3328 118.784 52.1613 116.303 52.1613H111.843V59.3691Z" fill="#19233E"/>
<path d="M152.344 66.6094H142.185L140.542 70.7665H134.239L144.331 47.2639H150.633L160.491 70.7665H153.952L152.344 66.6094ZM150.534 61.9174L147.316 53.5361L144.03 61.9174H150.534Z" fill="#19233E"/>
<path d="M184.563 70.7686L178.46 61.6815L175.444 65.0353V70.7686H169.308V47.266H175.444V57.1218L184.26 47.266H191.368L182.651 56.9875L191.905 70.7686H184.563Z" fill="#19233E"/>
<path d="M219.664 47.266V52.1593H207.26V56.5523H218.458V61.4131L207.26 61.4477V65.8732H220V70.7686H201.124V47.266H219.664Z" fill="#19233E"/>
<path d="M156.58 14.371L161.538 9.41466H145.671L145.693 9.39026H121.509L111.391 15.7743L100.813 9.39026H74.2093L77.1135 9.41466H61.2438L66.2042 14.371H82.074L84.2359 16.535H70.5749L75.5333 21.4934H89.1943L91.1874 23.4865H79.672L83.3247 27.1372H94.6225L94.5696 27.0843H128.213H128.662H139.962L143.615 23.4316H132.099L134.074 21.4547H147.735L152.696 16.4984H139.035L140.71 14.371H156.58Z" fill="#19233E"/>
<path d="M106.532 38.4798H116.25L120.409 34.3228H102.373L106.532 38.4798Z" fill="#19233E"/>
<path d="M99.2473 32.6813H123.537L127.694 28.5242H95.0882L99.2473 32.6813Z" fill="#19233E"/>
<path d="M106.229 3.05309L103.573 9.29888L111.45 14.0539L118.723 9.29888L117.364 6.07938L121.753 4.42997C121.753 4.42997 122.13 2.99411 117.143 2.47956C116.075 -1.72024 107.281 0.685747 107.281 0.685747L106.229 3.05512V3.05309Z" fill="#19233E"/>
</svg>
