<?xml version="1.0" encoding="utf-8"?>
<!-- Generator: Adobe Illustrator 25.2.1, SVG Export Plug-In . SVG Version: 6.00 Build 0)  -->
<svg version="1.1" id="Capa_1" xmlns="http://www.w3.org/2000/svg" xmlns:xlink="http://www.w3.org/1999/xlink" x="0px" y="0px"
	 viewBox="0 0 194.84 80.45" style="enable-background:new 0 0 194.84 80.45;" xml:space="preserve">
<style type="text/css">
	.st0{fill:#54C8E8;}
	.st1{filter:url(#Adobe_OpacityMaskFilter);}
	.st2{clip-path:url(#SVGID_1_);fill:url(#SVGID_3_);}
	.st3{clip-path:url(#SVGID_1_);mask:url(#SVGID_2_);fill:url(#SVGID_4_);}
	.st4{opacity:0.5;}
	.st5{clip-path:url(#SVGID_5_);fill:#0047BA;}
	.st6{opacity:0.8;}
	.st7{clip-path:url(#SVGID_6_);fill:#0047BA;}
	.st8{fill:#0047BA;}
	.st9{clip-path:url(#SVGID_7_);}
	.st10{filter:url(#Adobe_OpacityMaskFilter_1_);}
	.st11{clip-path:url(#SVGID_8_);fill:url(#SVGID_10_);}
	.st12{clip-path:url(#SVGID_8_);mask:url(#SVGID_9_);fill:url(#SVGID_11_);}
	.st13{filter:url(#Adobe_OpacityMaskFilter_2_);}
	.st14{clip-path:url(#SVGID_12_);fill:url(#SVGID_14_);}
	.st15{clip-path:url(#SVGID_12_);mask:url(#SVGID_13_);fill:url(#SVGID_15_);}
	.st16{filter:url(#Adobe_OpacityMaskFilter_3_);}
	.st17{clip-path:url(#SVGID_16_);fill:url(#SVGID_18_);}
	.st18{clip-path:url(#SVGID_16_);mask:url(#SVGID_17_);fill:url(#SVGID_19_);}
	.st19{filter:url(#Adobe_OpacityMaskFilter_4_);}
	.st20{clip-path:url(#SVGID_20_);fill:url(#SVGID_22_);}
	.st21{clip-path:url(#SVGID_20_);mask:url(#SVGID_21_);fill:url(#SVGID_23_);}
	.st22{filter:url(#Adobe_OpacityMaskFilter_5_);}
	.st23{clip-path:url(#SVGID_24_);fill:url(#SVGID_26_);}
	.st24{clip-path:url(#SVGID_24_);mask:url(#SVGID_25_);fill:url(#SVGID_27_);}
	.st25{filter:url(#Adobe_OpacityMaskFilter_6_);}
	.st26{clip-path:url(#SVGID_28_);fill:url(#SVGID_30_);}
	.st27{clip-path:url(#SVGID_28_);mask:url(#SVGID_29_);fill:url(#SVGID_31_);}
	.st28{filter:url(#Adobe_OpacityMaskFilter_7_);}
	.st29{clip-path:url(#SVGID_32_);fill:url(#SVGID_34_);}
	.st30{clip-path:url(#SVGID_32_);mask:url(#SVGID_33_);fill:url(#SVGID_35_);}
	.st31{filter:url(#Adobe_OpacityMaskFilter_8_);}
	.st32{clip-path:url(#SVGID_36_);fill:url(#SVGID_38_);}
	.st33{clip-path:url(#SVGID_36_);mask:url(#SVGID_37_);fill:url(#SVGID_39_);}
	.st34{filter:url(#Adobe_OpacityMaskFilter_9_);}
	.st35{clip-path:url(#SVGID_40_);fill:url(#SVGID_42_);}
	.st36{clip-path:url(#SVGID_40_);mask:url(#SVGID_41_);fill:url(#SVGID_43_);}
	.st37{filter:url(#Adobe_OpacityMaskFilter_10_);}
	.st38{clip-path:url(#SVGID_44_);fill:url(#SVGID_46_);}
	.st39{clip-path:url(#SVGID_44_);mask:url(#SVGID_45_);fill:url(#SVGID_47_);}
	.st40{filter:url(#Adobe_OpacityMaskFilter_11_);}
	.st41{clip-path:url(#SVGID_48_);fill:url(#SVGID_50_);}
	.st42{clip-path:url(#SVGID_48_);mask:url(#SVGID_49_);fill:url(#SVGID_51_);}
	.st43{filter:url(#Adobe_OpacityMaskFilter_12_);}
	.st44{clip-path:url(#SVGID_52_);fill:url(#SVGID_54_);}
	.st45{clip-path:url(#SVGID_52_);mask:url(#SVGID_53_);fill:url(#SVGID_55_);}
	.st46{filter:url(#Adobe_OpacityMaskFilter_13_);}
	.st47{clip-path:url(#SVGID_56_);fill:url(#SVGID_58_);}
	.st48{clip-path:url(#SVGID_56_);mask:url(#SVGID_57_);fill:url(#SVGID_59_);}
	.st49{filter:url(#Adobe_OpacityMaskFilter_14_);}
	.st50{clip-path:url(#SVGID_60_);fill:url(#SVGID_62_);}
	.st51{clip-path:url(#SVGID_60_);mask:url(#SVGID_61_);fill:url(#SVGID_63_);}
	.st52{filter:url(#Adobe_OpacityMaskFilter_15_);}
	.st53{clip-path:url(#SVGID_64_);fill:url(#SVGID_66_);}
	.st54{clip-path:url(#SVGID_64_);mask:url(#SVGID_65_);fill:url(#SVGID_67_);}
	.st55{fill:#FFFFFF;}
</style>
<g>
	<path d="M100.53,54.87c-0.86,0-1.63-0.6-1.63-1.61c0-1.2,1-2.24,2.17-2.24c0.68,0,1.09,0.31,1.33,0.65
		c0.05,0.06,0.09,0.14,0.09,0.22c0,0.14-0.11,0.25-0.26,0.25c-0.09,0-0.16-0.04-0.22-0.11c-0.21-0.31-0.5-0.53-0.98-0.53
		c-0.83,0-1.57,0.82-1.57,1.74c0,0.73,0.52,1.14,1.1,1.14c0.36,0,0.67-0.14,0.97-0.38c0.06-0.04,0.12-0.06,0.19-0.06
		c0.14,0,0.23,0.1,0.23,0.24c0,0.08-0.03,0.14-0.09,0.19C101.48,54.67,101.06,54.87,100.53,54.87z"/>
	<path d="M105.15,54.54l0.09-0.33c-0.34,0.39-0.79,0.66-1.38,0.66c-0.62,0-1.17-0.36-1.17-1.02c0-0.83,0.69-1.33,1.64-1.33
		c0.49,0,0.95,0.1,1.31,0.2l0.02-0.09c0.03-0.11,0.05-0.24,0.05-0.34c0-0.48-0.33-0.75-1-0.75c-0.33,0-0.63,0.06-0.85,0.13
		c-0.04,0.01-0.08,0.02-0.11,0.02c-0.13,0-0.22-0.1-0.22-0.23c0-0.11,0.07-0.2,0.19-0.24c0.35-0.11,0.68-0.17,1.08-0.17
		c0.93,0,1.45,0.43,1.45,1.14c0,0.16-0.03,0.33-0.08,0.51l-0.49,1.85c-0.04,0.17-0.16,0.27-0.31,0.27
		C105.18,54.82,105.13,54.68,105.15,54.54z M105.48,53.33l0.07-0.26c-0.32-0.09-0.74-0.16-1.2-0.16c-0.66,0-1.1,0.36-1.1,0.86
		c0,0.39,0.31,0.66,0.78,0.66C104.66,54.43,105.31,53.98,105.48,53.33z"/>
	<path d="M107.56,53.95l-0.16,0.59c-0.04,0.16-0.14,0.27-0.31,0.27c-0.17,0-0.27-0.14-0.22-0.34l1.25-4.66
		c0.05-0.17,0.16-0.27,0.31-0.27c0.18,0,0.27,0.14,0.22,0.34l-0.5,1.85c0.36-0.41,0.81-0.71,1.4-0.71c0.83,0,1.46,0.62,1.46,1.56
		c0,1.3-0.99,2.29-2.07,2.29C108.19,54.87,107.77,54.44,107.56,53.95z M110.43,52.63c0-0.68-0.42-1.13-1.04-1.13
		c-0.82,0-1.64,0.83-1.64,1.73c0,0.64,0.46,1.15,1.14,1.15C109.77,54.38,110.43,53.57,110.43,52.63z"/>
	<path d="M112.15,54.54c-0.05,0.17-0.16,0.27-0.31,0.27c-0.18,0-0.27-0.14-0.22-0.34l1.25-4.66c0.05-0.17,0.16-0.27,0.31-0.27
		c0.18,0,0.28,0.14,0.22,0.34L112.15,54.54z"/>
	<path d="M116.25,54.05c0.05-0.03,0.12-0.06,0.19-0.06c0.13,0,0.22,0.09,0.22,0.22c0,0.08-0.04,0.15-0.11,0.2
		c-0.35,0.28-0.78,0.46-1.33,0.46c-0.98,0-1.63-0.63-1.63-1.57c0-1.13,0.91-2.28,2.14-2.28c0.93,0,1.43,0.64,1.43,1.41
		c0,0.18-0.03,0.34-0.05,0.45c-0.04,0.16-0.13,0.25-0.3,0.25h-2.67c0,0.06-0.01,0.12-0.01,0.18c0.01,0.66,0.44,1.08,1.11,1.08
		C115.64,54.39,115.96,54.27,116.25,54.05z M116.59,52.71c0.02-0.06,0.04-0.16,0.04-0.29c0-0.51-0.28-0.95-0.92-0.95
		c-0.73,0-1.29,0.56-1.49,1.23H116.59z"/>
	<path d="M119.86,53.79c0-0.24-0.16-0.42-0.7-0.63c-0.66-0.26-1.04-0.5-1.04-1.01c0-0.63,0.54-1.13,1.4-1.13
		c0.46,0,0.93,0.19,1.19,0.38c0.09,0.05,0.14,0.12,0.14,0.23c0,0.14-0.11,0.24-0.24,0.24c-0.06,0-0.11-0.03-0.16-0.06
		c-0.3-0.2-0.62-0.33-0.98-0.33c-0.52,0-0.8,0.28-0.8,0.58c0,0.24,0.15,0.4,0.73,0.63c0.66,0.27,1,0.53,1,1.01
		c0,0.68-0.63,1.16-1.41,1.16c-0.52,0-1.02-0.17-1.43-0.5c-0.07-0.06-0.11-0.14-0.11-0.22c0-0.14,0.11-0.25,0.24-0.25
		c0.07,0,0.14,0.04,0.19,0.08c0.38,0.31,0.76,0.44,1.17,0.44C119.46,54.4,119.86,54.16,119.86,53.79z"/>
	<path d="M126.23,54.54l0.1-0.39c-0.35,0.4-0.8,0.71-1.39,0.71c-0.83,0-1.46-0.63-1.46-1.56c0-1.3,0.99-2.29,2.07-2.29
		c0.76,0,1.18,0.43,1.38,0.91l0.56-2.12c0.05-0.17,0.16-0.27,0.31-0.27c0.18,0,0.27,0.14,0.22,0.34l-1.24,4.66
		c-0.05,0.17-0.16,0.27-0.31,0.27C126.3,54.82,126.21,54.7,126.23,54.54z M126.73,52.64c0-0.64-0.46-1.14-1.14-1.14
		c-0.88,0-1.54,0.81-1.54,1.75c0,0.68,0.43,1.13,1.04,1.13C125.91,54.38,126.73,53.55,126.73,52.64z"/>
	<path d="M130.82,54.05c0.05-0.03,0.12-0.06,0.19-0.06c0.13,0,0.22,0.09,0.22,0.22c0,0.08-0.04,0.15-0.11,0.2
		c-0.35,0.28-0.78,0.46-1.33,0.46c-0.98,0-1.63-0.63-1.63-1.57c0-1.13,0.91-2.28,2.15-2.28c0.93,0,1.43,0.64,1.43,1.41
		c0,0.18-0.03,0.34-0.05,0.45c-0.04,0.16-0.13,0.25-0.3,0.25h-2.67c0,0.06-0.01,0.12-0.01,0.18c0.01,0.66,0.44,1.08,1.11,1.08
		C130.21,54.39,130.53,54.27,130.82,54.05z M131.16,52.71c0.02-0.06,0.04-0.16,0.04-0.29c0-0.51-0.28-0.95-0.92-0.95
		c-0.73,0-1.29,0.56-1.49,1.23H131.16z"/>
	<path d="M136.13,54.87c-0.86,0-1.63-0.6-1.63-1.61c0-1.2,1-2.24,2.17-2.24c0.68,0,1.09,0.31,1.33,0.65
		c0.05,0.06,0.09,0.14,0.09,0.22c0,0.14-0.11,0.25-0.26,0.25c-0.09,0-0.16-0.04-0.22-0.11c-0.21-0.31-0.5-0.53-0.98-0.53
		c-0.83,0-1.57,0.82-1.57,1.74c0,0.73,0.52,1.14,1.1,1.14c0.36,0,0.67-0.14,0.97-0.38c0.06-0.04,0.12-0.06,0.19-0.06
		c0.14,0,0.23,0.1,0.23,0.24c0,0.08-0.03,0.14-0.09,0.19C137.09,54.67,136.66,54.87,136.13,54.87z"/>
	<path d="M138.44,53.21c0-1.15,0.99-2.19,2.17-2.19c1.01,0,1.68,0.69,1.68,1.65c0,1.18-1.02,2.2-2.17,2.2
		C139.1,54.87,138.44,54.17,138.44,53.21z M141.73,52.68c0-0.75-0.47-1.18-1.15-1.18c-0.85,0-1.58,0.84-1.58,1.7
		c0,0.75,0.47,1.18,1.15,1.18C140.98,54.37,141.73,53.56,141.73,52.68z"/>
	<path d="M145.85,52.69c0.04-0.12,0.06-0.29,0.06-0.41c0-0.48-0.29-0.77-0.77-0.77c-0.54,0-1.09,0.51-1.28,1.19l-0.49,1.85
		c-0.04,0.17-0.16,0.27-0.31,0.27c-0.17,0-0.27-0.14-0.22-0.34l0.84-3.14c0.04-0.17,0.15-0.27,0.31-0.27c0.16,0,0.26,0.12,0.23,0.27
		l-0.09,0.36c0.33-0.38,0.68-0.68,1.23-0.68c0.62,0,0.95,0.4,1.05,0.83c0.33-0.51,0.83-0.83,1.48-0.83c0.66,0,1.13,0.46,1.13,1.14
		c0,0.17-0.06,0.38-0.1,0.57l-0.48,1.82c-0.04,0.17-0.16,0.27-0.31,0.27c-0.17,0-0.27-0.14-0.22-0.34l0.48-1.78
		c0.03-0.12,0.05-0.29,0.05-0.41c0-0.48-0.29-0.77-0.76-0.77c-0.54,0-1.09,0.51-1.28,1.19l-0.49,1.85c-0.04,0.17-0.15,0.27-0.3,0.27
		c-0.18,0-0.28-0.14-0.22-0.34L145.85,52.69z"/>
	<path d="M152,54.54l0.09-0.33c-0.34,0.39-0.79,0.66-1.38,0.66c-0.62,0-1.17-0.36-1.17-1.02c0-0.83,0.69-1.33,1.64-1.33
		c0.49,0,0.95,0.1,1.31,0.2l0.02-0.09c0.03-0.11,0.05-0.24,0.05-0.34c0-0.48-0.33-0.75-1-0.75c-0.33,0-0.63,0.06-0.85,0.13
		c-0.04,0.01-0.08,0.02-0.11,0.02c-0.13,0-0.22-0.1-0.22-0.23c0-0.11,0.07-0.2,0.19-0.24c0.35-0.11,0.68-0.17,1.08-0.17
		c0.93,0,1.45,0.43,1.45,1.14c0,0.16-0.03,0.33-0.08,0.51l-0.49,1.85c-0.04,0.17-0.16,0.27-0.31,0.27
		C152.03,54.82,151.98,54.68,152,54.54z M152.33,53.33l0.07-0.26c-0.32-0.09-0.74-0.16-1.2-0.16c-0.66,0-1.1,0.36-1.1,0.86
		c0,0.39,0.31,0.66,0.78,0.66C151.51,54.43,152.16,53.98,152.33,53.33z"/>
	<path d="M155.11,51.33l-0.09,0.36c0.33-0.38,0.72-0.68,1.28-0.68c0.71,0,1.18,0.44,1.18,1.14c0,0.17-0.04,0.38-0.09,0.57
		l-0.48,1.82c-0.04,0.17-0.15,0.27-0.3,0.27c-0.18,0-0.28-0.14-0.22-0.34l0.47-1.78c0.04-0.12,0.06-0.29,0.06-0.41
		c0-0.48-0.31-0.77-0.83-0.77c-0.57,0-1.14,0.49-1.33,1.19l-0.49,1.85c-0.04,0.17-0.16,0.27-0.31,0.27c-0.17,0-0.27-0.14-0.22-0.34
		l0.84-3.14c0.04-0.17,0.15-0.27,0.31-0.27C155.04,51.06,155.13,51.18,155.11,51.33z"/>
	<path d="M160.99,54.54l0.1-0.39c-0.35,0.4-0.8,0.71-1.39,0.71c-0.83,0-1.46-0.63-1.46-1.56c0-1.3,0.99-2.29,2.07-2.29
		c0.76,0,1.18,0.43,1.38,0.91l0.56-2.12c0.05-0.17,0.16-0.27,0.31-0.27c0.18,0,0.27,0.14,0.22,0.34l-1.24,4.66
		c-0.05,0.17-0.16,0.27-0.31,0.27C161.07,54.82,160.98,54.7,160.99,54.54z M161.5,52.64c0-0.64-0.46-1.14-1.14-1.14
		c-0.88,0-1.54,0.81-1.54,1.75c0,0.68,0.43,1.13,1.04,1.13C160.68,54.38,161.5,53.55,161.5,52.64z"/>
	<path d="M162.93,53.21c0-1.15,0.99-2.19,2.17-2.19c1.01,0,1.68,0.69,1.68,1.65c0,1.18-1.02,2.2-2.17,2.2
		C163.6,54.87,162.93,54.17,162.93,53.21z M166.22,52.68c0-0.75-0.47-1.18-1.15-1.18c-0.85,0-1.58,0.84-1.58,1.7
		c0,0.75,0.47,1.18,1.15,1.18C165.47,54.37,166.22,53.56,166.22,52.68z"/>
</g>
<path d="M126.95,30.91c0-1.19-0.41-2.23-1.15-2.98c-1.02-1.04-2.57-1.53-4.78-1.53h-16.23c-0.74,0-1.33,0.52-1.58,1.4l-3.4,12.76
	c-0.32,1.08,0.22,1.74,1.13,1.74c0.72,0,1.31-0.52,1.56-1.38l1.37-5.16h6.54l0.67-2.52c-0.03,0-0.05-0.01-0.08-0.01h-6.45l1.15-4.31
	h8.91l-3.1,11.59c-0.32,1.13,0.22,1.78,1.13,1.78c0.72,0,1.31-0.5,1.53-1.35l1.15-4.26h3.29l4.11,7.06c0.32,0.54,0.81,0.9,1.58,0.9
	c0.65,0,1.35-0.43,1.35-1.26c0-0.27-0.07-0.56-0.32-0.92l-3.62-6.07c1.65-0.36,2.86-0.92,3.79-1.87
	C126.43,33.62,126.95,32.38,126.95,30.91 M123.27,33.03c-0.74,0.77-2.05,1.19-3.72,1.19h-3.56l1.42-5.3h3.45
	c1.26,0,2.12,0.27,2.64,0.77c0.36,0.38,0.56,0.86,0.56,1.44C124.06,31.9,123.76,32.54,123.27,33.03 M171.68,26.31
	c-5.29,0-8.97,5.01-8.97,9.52c0,3.96,2.77,6.63,6.89,6.63c2.12,0,3.93-0.62,5.54-1.91c0.34-0.27,0.54-0.64,0.54-1.03
	c0-0.67-0.5-1.17-1.17-1.17c-0.38,0-0.75,0.19-0.89,0.27l-0.04,0.02c-1.13,0.9-2.36,1.33-3.87,1.33c-2.54,0-4.2-1.61-4.23-4.11
	c0-0.11,0.01-0.23,0.01-0.34c0-0.03,0-0.07,0.01-0.1h10.53c0.79,0,1.3-0.42,1.48-1.23c0.09-0.44,0.21-1.12,0.21-1.87
	C177.73,29.32,175.86,26.31,171.68,26.31 M174.93,33.18h-9.02c0.8-2.26,2.79-4.44,5.65-4.44c2.54,0,3.45,1.84,3.45,3.56
	C175.01,32.65,174.98,32.95,174.93,33.18 M136.95,26.31c-5.28,0-8.97,5.01-8.97,9.52c0,3.96,2.77,6.63,6.89,6.63
	c2.12,0,3.93-0.62,5.54-1.91c0.34-0.27,0.54-0.64,0.54-1.03c0-0.67-0.5-1.17-1.17-1.17c-0.38,0-0.75,0.19-0.89,0.27l-0.04,0.02
	c-1.13,0.9-2.36,1.33-3.87,1.33c-2.54,0-4.2-1.61-4.23-4.11c0-0.11,0.01-0.23,0.01-0.34c0-0.03,0-0.07,0.01-0.1h10.53
	c0.79,0,1.3-0.42,1.48-1.23c0.09-0.44,0.21-1.12,0.21-1.87C143,29.32,141.13,26.31,136.95,26.31 M140.2,33.18h-9.02
	c0.8-2.26,2.79-4.44,5.65-4.44c2.54,0,3.45,1.84,3.45,3.56C140.28,32.65,140.25,32.95,140.2,33.18 M194.28,28.5
	c-1.16-1.29-2.83-2.18-5.22-2.18c-5.22,0-9.43,4.48-9.43,9.5c0,4.1,3.03,6.64,7.05,6.64c2.21,0,4.06-0.78,5.31-1.87
	c0.27-0.22,0.49-0.58,0.49-1.03c0-0.71-0.53-1.29-1.25-1.29c-0.36,0-0.69,0.18-0.94,0.33c-1.16,0.87-2.01,1.32-3.55,1.32
	c-2.5,0-4.26-1.65-4.26-4.21c0-3.66,2.92-6.87,6.27-6.87c1.87,0,2.85,0.76,3.7,1.81c0.25,0.31,0.6,0.42,0.98,0.42
	c0.8,0,1.41-0.65,1.41-1.4C194.84,29.14,194.57,28.77,194.28,28.5 M161.17,26.31h-0.23c-0.7,0-1.2,0.32-1.71,0.9l-6.43,7.33
	l-2.77-7.1c-0.27-0.7-0.7-1.13-1.42-1.13h-0.16c-0.83,0-1.33,0.54-1.58,1.44l-3.43,12.76c-0.32,1.13,0.23,1.78,1.13,1.78
	c0.72,0,1.31-0.5,1.53-1.38l2.52-9.42l2.12,5.3c0.25,0.68,0.59,0.99,1.19,0.99c0.54,0,1.02-0.32,1.49-0.83l5.12-5.46l-3.01,11.36
	c-0.29,1.13,0.25,1.78,1.13,1.78c0.75,0,1.35-0.5,1.58-1.35l4.05-15.17C162.59,26.99,162.1,26.31,161.17,26.31"/>
<path class="st0" d="M47.16,3.4l23.1,17.87c4.32,3.35,4.34,9.86,0.02,13.22L47.25,52.45c-5.84,4.55-14.02,4.59-19.9,0.09L4.4,34.99
	c-4.32-3.3-4.4-9.78-0.15-13.19L27.03,3.57C32.89-1.13,41.22-1.2,47.16,3.4"/>
<path class="st0" d="M73.45,28.72h-0.03c-0.21,2.18-1.27,4.3-3.18,5.79l-23,17.95c-5.83,4.55-14,4.59-19.87,0.09L4.44,35
	c-2.08-1.59-3.17-3.92-3.28-6.29H1.16v7.27l0,0.05c-0.03,2.53,1.06,5.06,3.28,6.76l22.93,17.54c5.87,4.49,14.04,4.45,19.87-0.09
	l23-17.95c2.05-1.6,3.12-3.91,3.21-6.25l0-0.04L73.45,28.72z"/>
<path class="st0" d="M73.45,36.52h-0.03c-0.21,2.18-1.27,4.3-3.18,5.79l-23,17.95c-5.83,4.55-14,4.59-19.87,0.09L4.44,42.8
	c-2.08-1.59-3.17-3.92-3.28-6.29H1.16v7.27l0,0.05c-0.03,2.53,1.06,5.06,3.28,6.76l22.93,17.54c5.87,4.49,14.04,4.45,19.87-0.09
	l23-17.95c2.05-1.6,3.12-3.91,3.21-6.25l0-0.04L73.45,36.52z"/>
<path class="st0" d="M73.45,44.33h-0.03c-0.21,2.18-1.27,4.3-3.18,5.79l-23,17.95c-5.83,4.55-14,4.59-19.87,0.09L4.44,50.61
	c-2.08-1.59-3.17-3.92-3.28-6.29H1.16v7.27l0,0.05c-0.03,2.53,1.06,5.06,3.28,6.76l22.93,17.54c5.87,4.49,14.04,4.45,19.87-0.09
	l23-17.95c2.05-1.6,3.12-3.91,3.21-6.25l0-0.04L73.45,44.33z"/>
<path class="st0" d="M47.16,3.4l23.1,17.87c4.32,3.35,4.34,9.86,0.02,13.22L47.25,52.45c-5.84,4.55-14.02,4.59-19.9,0.09L4.4,34.99
	c-4.32-3.3-4.4-9.78-0.15-13.19L27.03,3.57C32.89-1.13,41.22-1.2,47.16,3.4"/>
<g>
	<defs>
		<path id="SVGID_91_" d="M27.03,3.57L4.25,21.81C0,25.21,0.07,31.69,4.4,34.99l22.96,17.55c5.88,4.5,14.06,4.46,19.9-0.09
			L70.29,34.5c4.31-3.36,4.3-9.88-0.03-13.22L47.16,3.4C44.23,1.13,40.72,0,37.2,0C33.6,0,30,1.19,27.03,3.57"/>
	</defs>
	<clipPath id="SVGID_1_">
		<use xlink:href="#SVGID_91_"  style="overflow:visible;"/>
	</clipPath>
	<defs>
		<filter id="Adobe_OpacityMaskFilter" filterUnits="userSpaceOnUse" x="0" y="0" width="74.6" height="57.04">
			<feColorMatrix  type="matrix" values="1 0 0 0 0  0 1 0 0 0  0 0 1 0 0  0 0 0 1 0"/>
		</filter>
	</defs>
	<mask maskUnits="userSpaceOnUse" x="0" y="0" width="74.6" height="57.04" id="SVGID_2_">
		<g class="st1">
			
				<linearGradient id="SVGID_3_" gradientUnits="userSpaceOnUse" x1="-203.2565" y1="895.1138" x2="-202.1542" y2="895.1138" gradientTransform="matrix(0 -50.7015 -50.7015 0 45420.9062 -10249.5186)">
				<stop  offset="0" style="stop-color:#333333"/>
				<stop  offset="0.5491" style="stop-color:#7B7B7B"/>
				<stop  offset="1" style="stop-color:#B3B3B3"/>
			</linearGradient>
			<rect y="0" class="st2" width="74.6" height="57.04"/>
		</g>
	</mask>
	
		<linearGradient id="SVGID_4_" gradientUnits="userSpaceOnUse" x1="-203.2565" y1="895.1138" x2="-202.1542" y2="895.1138" gradientTransform="matrix(0 -50.7015 -50.7015 0 45420.9062 -10249.5186)">
		<stop  offset="0" style="stop-color:#0047BA"/>
		<stop  offset="0.2284" style="stop-color:#3D73CB"/>
		<stop  offset="0.765" style="stop-color:#C6D6EF"/>
		<stop  offset="1" style="stop-color:#FEFEFE"/>
	</linearGradient>
	<rect y="0" class="st3" width="74.6" height="57.04"/>
</g>
<g class="st4">
	<g>
		<defs>
			<rect id="SVGID_100_" x="1.16" y="28.72" width="72.31" height="34.97"/>
		</defs>
		<clipPath id="SVGID_5_">
			<use xlink:href="#SVGID_100_"  style="overflow:visible;"/>
		</clipPath>
		<path class="st5" d="M73.45,28.72h-0.03c-0.21,2.18-1.27,4.3-3.18,5.79l-23,17.95c-5.83,4.55-14,4.59-19.87,0.09L4.44,35
			c-2.08-1.59-3.17-3.92-3.28-6.29H1.16v7.27l0,0.05c-0.03,2.53,1.06,5.06,3.28,6.76l22.93,17.54c5.87,4.49,14.04,4.45,19.87-0.09
			l23-17.95c2.05-1.6,3.12-3.91,3.21-6.25l0-0.04L73.45,28.72z"/>
	</g>
</g>
<g class="st6">
	<g>
		<defs>
			<rect id="SVGID_102_" x="1.16" y="36.52" width="72.31" height="34.97"/>
		</defs>
		<clipPath id="SVGID_6_">
			<use xlink:href="#SVGID_102_"  style="overflow:visible;"/>
		</clipPath>
		<path class="st7" d="M73.45,36.52h-0.03c-0.21,2.18-1.27,4.3-3.18,5.79l-23,17.95c-5.83,4.55-14,4.59-19.87,0.09L4.44,42.8
			c-2.08-1.59-3.17-3.92-3.28-6.29H1.16v7.27l0,0.05c-0.03,2.53,1.06,5.06,3.28,6.76l22.93,17.54c5.87,4.49,14.04,4.45,19.87-0.09
			l23-17.95c2.05-1.6,3.12-3.91,3.21-6.25l0-0.04L73.45,36.52z"/>
	</g>
</g>
<path class="st8" d="M73.45,44.33h-0.03c-0.21,2.18-1.27,4.3-3.18,5.79l-23,17.95c-5.83,4.55-14,4.59-19.87,0.09L4.44,50.61
	c-2.08-1.59-3.17-3.92-3.28-6.29H1.16v7.27l0,0.05c-0.03,2.53,1.06,5.06,3.28,6.76l22.93,17.54c5.87,4.49,14.04,4.45,19.87-0.09
	l23-17.95c2.05-1.6,3.12-3.91,3.21-6.25l0-0.04L73.45,44.33z"/>
<g>
	<g>
		<defs>
			<rect id="SVGID_104_" x="1.16" y="28.72" width="72.31" height="50.57"/>
		</defs>
		<clipPath id="SVGID_7_">
			<use xlink:href="#SVGID_104_"  style="overflow:visible;"/>
		</clipPath>
		<g class="st9">
			<defs>
				<path id="SVGID_106_" d="M73.45,28.72h-0.03c-0.21,2.18-1.27,4.3-3.18,5.79l-23,17.95c-5.83,4.55-14,4.59-19.87,0.09L4.44,35
					c-2.08-1.59-3.18-3.92-3.28-6.29H1.16v7.27l0,0.05c-0.03,2.53,1.06,5.07,3.28,6.76l22.93,17.54c5.87,4.49,14.04,4.45,19.87-0.09
					l23-17.95c2.05-1.6,3.12-3.91,3.21-6.25l0-0.04L73.45,28.72z"/>
			</defs>
			<clipPath id="SVGID_8_">
				<use xlink:href="#SVGID_106_"  style="overflow:visible;"/>
			</clipPath>
			<defs>
				<filter id="Adobe_OpacityMaskFilter_1_" filterUnits="userSpaceOnUse" x="1.13" y="28.72" width="72.34" height="36.12">
					<feColorMatrix  type="matrix" values="1 0 0 0 0  0 1 0 0 0  0 0 1 0 0  0 0 0 1 0"/>
				</filter>
			</defs>
			<mask maskUnits="userSpaceOnUse" x="1.13" y="28.72" width="72.34" height="36.12" id="SVGID_9_">
				<g class="st10">
					
						<linearGradient id="SVGID_10_" gradientUnits="userSpaceOnUse" x1="-198.5385" y1="887.5975" x2="-197.4361" y2="887.5975" gradientTransform="matrix(34.4676 0 0 -34.4676 6844.2783 30640.1699)">
						<stop  offset="0" style="stop-color:#B3B3B3"/>
						<stop  offset="0.3153" style="stop-color:#B0B0B0"/>
						<stop  offset="0.4664" style="stop-color:#A9A9A9"/>
						<stop  offset="0.5826" style="stop-color:#9C9C9C"/>
						<stop  offset="0.6809" style="stop-color:#898989"/>
						<stop  offset="0.768" style="stop-color:#717171"/>
						<stop  offset="0.8471" style="stop-color:#545454"/>
						<stop  offset="0.9201" style="stop-color:#313131"/>
						<stop  offset="0.9866" style="stop-color:#090909"/>
						<stop  offset="1" style="stop-color:#000000"/>
					</linearGradient>
					<rect x="1.13" y="28.72" class="st11" width="72.34" height="36.12"/>
				</g>
			</mask>
			
				<linearGradient id="SVGID_11_" gradientUnits="userSpaceOnUse" x1="-198.5385" y1="887.5975" x2="-197.4361" y2="887.5975" gradientTransform="matrix(34.4676 0 0 -34.4676 6844.2783 30640.1699)">
				<stop  offset="0" style="stop-color:#0047BA"/>
				<stop  offset="0.853" style="stop-color:#0047BA"/>
				<stop  offset="1" style="stop-color:#0047BA"/>
			</linearGradient>
			<rect x="1.13" y="28.72" class="st12" width="72.34" height="36.12"/>
		</g>
		<g class="st9">
			<defs>
				<path id="SVGID_111_" d="M73.45,36.52h-0.03c-0.21,2.18-1.27,4.3-3.18,5.79l-23,17.95c-5.83,4.55-14,4.59-19.87,0.09L4.44,42.8
					c-2.08-1.59-3.18-3.92-3.28-6.29H1.16v7.27l0,0.05c-0.03,2.53,1.06,5.06,3.28,6.76l22.93,17.54c5.87,4.49,14.04,4.45,19.87-0.09
					l23-17.95c2.05-1.6,3.12-3.91,3.21-6.25l0-0.04L73.45,36.52z"/>
			</defs>
			<clipPath id="SVGID_12_">
				<use xlink:href="#SVGID_111_"  style="overflow:visible;"/>
			</clipPath>
			<defs>
				<filter id="Adobe_OpacityMaskFilter_2_" filterUnits="userSpaceOnUse" x="1.13" y="36.52" width="72.34" height="36.12">
					<feColorMatrix  type="matrix" values="1 0 0 0 0  0 1 0 0 0  0 0 1 0 0  0 0 0 1 0"/>
				</filter>
			</defs>
			<mask maskUnits="userSpaceOnUse" x="1.13" y="36.52" width="72.34" height="36.12" id="SVGID_13_">
				<g class="st13">
					
						<linearGradient id="SVGID_14_" gradientUnits="userSpaceOnUse" x1="-198.5396" y1="887.5483" x2="-197.4373" y2="887.5483" gradientTransform="matrix(34.3365 0 0 -34.3365 6818.2852 30529.8965)">
						<stop  offset="0" style="stop-color:#B3B3B3"/>
						<stop  offset="0.3153" style="stop-color:#B0B0B0"/>
						<stop  offset="0.4664" style="stop-color:#A9A9A9"/>
						<stop  offset="0.5826" style="stop-color:#9C9C9C"/>
						<stop  offset="0.6809" style="stop-color:#898989"/>
						<stop  offset="0.768" style="stop-color:#717171"/>
						<stop  offset="0.8471" style="stop-color:#545454"/>
						<stop  offset="0.9201" style="stop-color:#313131"/>
						<stop  offset="0.9866" style="stop-color:#090909"/>
						<stop  offset="1" style="stop-color:#000000"/>
					</linearGradient>
					<rect x="1.13" y="36.52" class="st14" width="72.34" height="36.12"/>
				</g>
			</mask>
			
				<linearGradient id="SVGID_15_" gradientUnits="userSpaceOnUse" x1="-198.5396" y1="887.5483" x2="-197.4373" y2="887.5483" gradientTransform="matrix(34.3365 0 0 -34.3365 6818.2852 30529.8965)">
				<stop  offset="0" style="stop-color:#0047BA"/>
				<stop  offset="0.853" style="stop-color:#0047BA"/>
				<stop  offset="1" style="stop-color:#0047BA"/>
			</linearGradient>
			<rect x="1.13" y="36.52" class="st15" width="72.34" height="36.12"/>
		</g>
		<g class="st9">
			<defs>
				<path id="SVGID_116_" d="M73.45,44.33h-0.03c-0.21,2.18-1.27,4.3-3.18,5.79l-23,17.95c-5.83,4.55-14,4.59-19.87,0.09L4.44,50.61
					c-2.08-1.59-3.18-3.92-3.28-6.29H1.16v7.27l0,0.05c-0.03,2.53,1.06,5.07,3.28,6.76l22.93,17.54c5.87,4.49,14.04,4.45,19.87-0.09
					l23-17.95c2.05-1.6,3.12-3.91,3.21-6.25l0-0.04L73.45,44.33z"/>
			</defs>
			<clipPath id="SVGID_16_">
				<use xlink:href="#SVGID_116_"  style="overflow:visible;"/>
			</clipPath>
			<defs>
				<filter id="Adobe_OpacityMaskFilter_3_" filterUnits="userSpaceOnUse" x="1.13" y="44.33" width="72.34" height="36.12">
					<feColorMatrix  type="matrix" values="1 0 0 0 0  0 1 0 0 0  0 0 1 0 0  0 0 0 1 0"/>
				</filter>
			</defs>
			<mask maskUnits="userSpaceOnUse" x="1.13" y="44.33" width="72.34" height="36.12" id="SVGID_17_">
				<g class="st16">
					
						<linearGradient id="SVGID_18_" gradientUnits="userSpaceOnUse" x1="-198.5382" y1="887.5617" x2="-197.4359" y2="887.5617" gradientTransform="matrix(34.4967 0 0 -34.4967 6850.0308 30680.3027)">
						<stop  offset="0" style="stop-color:#B3B3B3"/>
						<stop  offset="0.3153" style="stop-color:#B0B0B0"/>
						<stop  offset="0.4664" style="stop-color:#A9A9A9"/>
						<stop  offset="0.5826" style="stop-color:#9C9C9C"/>
						<stop  offset="0.6809" style="stop-color:#898989"/>
						<stop  offset="0.768" style="stop-color:#717171"/>
						<stop  offset="0.8471" style="stop-color:#545454"/>
						<stop  offset="0.9201" style="stop-color:#313131"/>
						<stop  offset="0.9866" style="stop-color:#090909"/>
						<stop  offset="1" style="stop-color:#000000"/>
					</linearGradient>
					<rect x="1.13" y="44.33" class="st17" width="72.34" height="36.12"/>
				</g>
			</mask>
			
				<linearGradient id="SVGID_19_" gradientUnits="userSpaceOnUse" x1="-198.5382" y1="887.5617" x2="-197.4359" y2="887.5617" gradientTransform="matrix(34.4967 0 0 -34.4967 6850.0308 30680.3027)">
				<stop  offset="0" style="stop-color:#0047BA"/>
				<stop  offset="0.853" style="stop-color:#0047BA"/>
				<stop  offset="1" style="stop-color:#0047BA"/>
			</linearGradient>
			<rect x="1.13" y="44.33" class="st18" width="72.34" height="36.12"/>
		</g>
	</g>
</g>
<g>
	<defs>
		<path id="SVGID_121_" d="M73.43,28.72c-0.21,2.18-1.27,4.3-3.18,5.79l-23,17.95c-5.83,4.55-14,4.59-19.87,0.09L4.44,35
			c-2.08-1.59-3.18-3.92-3.28-6.29H1.16v7.27l0,0.05c-0.03,2.53,1.06,5.07,3.28,6.76l22.93,17.54c5.87,4.49,14.04,4.45,19.87-0.09
			l23-17.95c2.05-1.6,3.12-3.91,3.22-6.25l0-0.04l-0.01-7.29H73.43z"/>
	</defs>
	<clipPath id="SVGID_20_">
		<use xlink:href="#SVGID_121_"  style="overflow:visible;"/>
	</clipPath>
	<defs>
		<filter id="Adobe_OpacityMaskFilter_4_" filterUnits="userSpaceOnUse" x="1.13" y="28.72" width="72.34" height="36.12">
			<feColorMatrix  type="matrix" values="1 0 0 0 0  0 1 0 0 0  0 0 1 0 0  0 0 0 1 0"/>
		</filter>
	</defs>
	<mask maskUnits="userSpaceOnUse" x="1.13" y="28.72" width="72.34" height="36.12" id="SVGID_21_">
		<g class="st19">
			
				<linearGradient id="SVGID_22_" gradientUnits="userSpaceOnUse" x1="-198.5385" y1="887.5975" x2="-197.4361" y2="887.5975" gradientTransform="matrix(34.4676 0 0 -34.4676 6844.2783 30640.1699)">
				<stop  offset="0" style="stop-color:#808080"/>
				<stop  offset="0.1268" style="stop-color:#373737"/>
				<stop  offset="0.2309" style="stop-color:#000000"/>
				<stop  offset="1" style="stop-color:#000000"/>
			</linearGradient>
			<rect x="1.13" y="28.72" class="st20" width="72.34" height="36.12"/>
		</g>
	</mask>
	
		<linearGradient id="SVGID_23_" gradientUnits="userSpaceOnUse" x1="-198.5385" y1="887.5975" x2="-197.4361" y2="887.5975" gradientTransform="matrix(34.4676 0 0 -34.4676 6844.2783 30640.1699)">
		<stop  offset="0" style="stop-color:#FEFEFE"/>
		<stop  offset="0.0527" style="stop-color:#C1D2EE"/>
		<stop  offset="0.1767" style="stop-color:#376FC9"/>
		<stop  offset="0.2309" style="stop-color:#0047BA"/>
		<stop  offset="1" style="stop-color:#0047BA"/>
	</linearGradient>
	<rect x="1.13" y="28.72" class="st21" width="72.34" height="36.12"/>
</g>
<g>
	<defs>
		<path id="SVGID_126_" d="M73.43,36.52c-0.21,2.18-1.27,4.3-3.18,5.79l-23,17.95c-5.83,4.55-14,4.59-19.87,0.09L4.44,42.8
			c-2.08-1.59-3.18-3.92-3.28-6.29H1.16v7.27l0,0.05c-0.03,2.53,1.06,5.06,3.28,6.76l22.93,17.54c5.87,4.49,14.04,4.45,19.87-0.09
			l23-17.95c2.05-1.6,3.12-3.91,3.22-6.25l0-0.04l-0.01-7.29H73.43z"/>
	</defs>
	<clipPath id="SVGID_24_">
		<use xlink:href="#SVGID_126_"  style="overflow:visible;"/>
	</clipPath>
	<defs>
		<filter id="Adobe_OpacityMaskFilter_5_" filterUnits="userSpaceOnUse" x="1.13" y="36.52" width="72.34" height="36.12">
			<feColorMatrix  type="matrix" values="1 0 0 0 0  0 1 0 0 0  0 0 1 0 0  0 0 0 1 0"/>
		</filter>
	</defs>
	<mask maskUnits="userSpaceOnUse" x="1.13" y="36.52" width="72.34" height="36.12" id="SVGID_25_">
		<g class="st22">
			
				<linearGradient id="SVGID_26_" gradientUnits="userSpaceOnUse" x1="-198.5396" y1="887.5483" x2="-197.4373" y2="887.5483" gradientTransform="matrix(34.3365 0 0 -34.3365 6818.2852 30529.8965)">
				<stop  offset="0" style="stop-color:#808080"/>
				<stop  offset="0.1268" style="stop-color:#373737"/>
				<stop  offset="0.2309" style="stop-color:#000000"/>
				<stop  offset="1" style="stop-color:#000000"/>
			</linearGradient>
			<rect x="1.13" y="36.52" class="st23" width="72.34" height="36.12"/>
		</g>
	</mask>
	
		<linearGradient id="SVGID_27_" gradientUnits="userSpaceOnUse" x1="-198.5396" y1="887.5483" x2="-197.4373" y2="887.5483" gradientTransform="matrix(34.3365 0 0 -34.3365 6818.2852 30529.8965)">
		<stop  offset="0" style="stop-color:#FEFEFE"/>
		<stop  offset="0.0527" style="stop-color:#C1D2EE"/>
		<stop  offset="0.1767" style="stop-color:#376FC9"/>
		<stop  offset="0.2309" style="stop-color:#0047BA"/>
		<stop  offset="1" style="stop-color:#0047BA"/>
	</linearGradient>
	<rect x="1.13" y="36.52" class="st24" width="72.34" height="36.12"/>
</g>
<g>
	<defs>
		<path id="SVGID_131_" d="M73.43,44.33c-0.21,2.18-1.27,4.3-3.18,5.79l-23,17.95c-5.83,4.55-14,4.59-19.87,0.09L4.44,50.61
			c-2.08-1.59-3.18-3.92-3.28-6.29H1.16v7.27l0,0.05c-0.03,2.53,1.06,5.06,3.28,6.76l22.93,17.54c5.87,4.49,14.04,4.45,19.87-0.09
			l23-17.95c2.05-1.6,3.12-3.91,3.22-6.25l0-0.04l-0.01-7.29H73.43z"/>
	</defs>
	<clipPath id="SVGID_28_">
		<use xlink:href="#SVGID_131_"  style="overflow:visible;"/>
	</clipPath>
	<defs>
		<filter id="Adobe_OpacityMaskFilter_6_" filterUnits="userSpaceOnUse" x="1.13" y="44.33" width="72.34" height="36.12">
			<feColorMatrix  type="matrix" values="1 0 0 0 0  0 1 0 0 0  0 0 1 0 0  0 0 0 1 0"/>
		</filter>
	</defs>
	<mask maskUnits="userSpaceOnUse" x="1.13" y="44.33" width="72.34" height="36.12" id="SVGID_29_">
		<g class="st25">
			
				<linearGradient id="SVGID_30_" gradientUnits="userSpaceOnUse" x1="-198.5382" y1="887.5617" x2="-197.4359" y2="887.5617" gradientTransform="matrix(34.4967 0 0 -34.4967 6850.0308 30680.3027)">
				<stop  offset="0" style="stop-color:#808080"/>
				<stop  offset="0.1268" style="stop-color:#373737"/>
				<stop  offset="0.2309" style="stop-color:#000000"/>
				<stop  offset="1" style="stop-color:#000000"/>
			</linearGradient>
			<rect x="1.13" y="44.33" class="st26" width="72.34" height="36.12"/>
		</g>
	</mask>
	
		<linearGradient id="SVGID_31_" gradientUnits="userSpaceOnUse" x1="-198.5382" y1="887.5617" x2="-197.4359" y2="887.5617" gradientTransform="matrix(34.4967 0 0 -34.4967 6850.0308 30680.3027)">
		<stop  offset="0" style="stop-color:#FEFEFE"/>
		<stop  offset="0.0527" style="stop-color:#C1D2EE"/>
		<stop  offset="0.1767" style="stop-color:#376FC9"/>
		<stop  offset="0.2309" style="stop-color:#0047BA"/>
		<stop  offset="1" style="stop-color:#0047BA"/>
	</linearGradient>
	<rect x="1.13" y="44.33" class="st27" width="72.34" height="36.12"/>
</g>
<g>
	<defs>
		<path id="SVGID_136_" d="M73.43,28.72c-0.21,2.18-1.27,4.3-3.18,5.79l-23,17.95c-5.83,4.55-14,4.59-19.87,0.09L4.44,35
			c-2.08-1.59-3.18-3.92-3.28-6.29H1.16v7.27l0,0.05c-0.03,2.53,1.06,5.07,3.28,6.76l22.93,17.54c5.87,4.49,14.04,4.45,19.87-0.09
			l23-17.95c2.05-1.6,3.12-3.91,3.22-6.25l0-0.04l-0.01-7.29H73.43z"/>
	</defs>
	<clipPath id="SVGID_32_">
		<use xlink:href="#SVGID_136_"  style="overflow:visible;"/>
	</clipPath>
	<defs>
		<filter id="Adobe_OpacityMaskFilter_7_" filterUnits="userSpaceOnUse" x="1.13" y="28.72" width="72.34" height="36.12">
			<feColorMatrix  type="matrix" values="1 0 0 0 0  0 1 0 0 0  0 0 1 0 0  0 0 0 1 0"/>
		</filter>
	</defs>
	<mask maskUnits="userSpaceOnUse" x="1.13" y="28.72" width="72.34" height="36.12" id="SVGID_33_">
		<g class="st28">
			
				<linearGradient id="SVGID_34_" gradientUnits="userSpaceOnUse" x1="-198.3951" y1="891.0854" x2="-197.2928" y2="891.0854" gradientTransform="matrix(65.3808 0 0 -65.3808 12972.3643 58306.6914)">
				<stop  offset="0" style="stop-color:#000000"/>
				<stop  offset="0.8109" style="stop-color:#000000"/>
				<stop  offset="1" style="stop-color:#666666"/>
			</linearGradient>
			<rect x="1.13" y="28.72" class="st29" width="72.34" height="36.12"/>
		</g>
	</mask>
	
		<linearGradient id="SVGID_35_" gradientUnits="userSpaceOnUse" x1="-198.3951" y1="891.0854" x2="-197.2928" y2="891.0854" gradientTransform="matrix(65.3808 0 0 -65.3808 12972.3643 58306.6914)">
		<stop  offset="0" style="stop-color:#0047BA"/>
		<stop  offset="0.8109" style="stop-color:#0047BA"/>
		<stop  offset="1" style="stop-color:#0047BA"/>
	</linearGradient>
	<rect x="1.13" y="28.72" class="st30" width="72.34" height="36.12"/>
</g>
<g>
	<defs>
		<path id="SVGID_141_" d="M73.43,36.52c-0.21,2.18-1.27,4.3-3.18,5.79l-23,17.95c-5.83,4.55-14,4.59-19.87,0.09L4.44,42.8
			c-2.08-1.59-3.18-3.92-3.28-6.29H1.16v7.27l0,0.05c-0.03,2.53,1.06,5.06,3.28,6.76l22.93,17.54c5.87,4.49,14.04,4.45,19.87-0.09
			l23-17.95c2.05-1.6,3.12-3.91,3.22-6.25l0-0.04l-0.01-7.29H73.43z"/>
	</defs>
	<clipPath id="SVGID_36_">
		<use xlink:href="#SVGID_141_"  style="overflow:visible;"/>
	</clipPath>
	<defs>
		<filter id="Adobe_OpacityMaskFilter_8_" filterUnits="userSpaceOnUse" x="1.13" y="36.52" width="72.34" height="36.12">
			<feColorMatrix  type="matrix" values="1 0 0 0 0  0 1 0 0 0  0 0 1 0 0  0 0 0 1 0"/>
		</filter>
	</defs>
	<mask maskUnits="userSpaceOnUse" x="1.13" y="36.52" width="72.34" height="36.12" id="SVGID_37_">
		<g class="st31">
			
				<linearGradient id="SVGID_38_" gradientUnits="userSpaceOnUse" x1="-198.3958" y1="891.0581" x2="-197.2934" y2="891.0581" gradientTransform="matrix(65.1102 0 0 -65.1102 12918.7207 58071.582)">
				<stop  offset="0" style="stop-color:#000000"/>
				<stop  offset="0.8109" style="stop-color:#000000"/>
				<stop  offset="1" style="stop-color:#666666"/>
			</linearGradient>
			<rect x="1.13" y="36.52" class="st32" width="72.34" height="36.12"/>
		</g>
	</mask>
	
		<linearGradient id="SVGID_39_" gradientUnits="userSpaceOnUse" x1="-198.3958" y1="891.0581" x2="-197.2934" y2="891.0581" gradientTransform="matrix(65.1102 0 0 -65.1102 12918.7207 58071.582)">
		<stop  offset="0" style="stop-color:#0047BA"/>
		<stop  offset="0.8109" style="stop-color:#0047BA"/>
		<stop  offset="1" style="stop-color:#0047BA"/>
	</linearGradient>
	<rect x="1.13" y="36.52" class="st33" width="72.34" height="36.12"/>
</g>
<g>
	<defs>
		<path id="SVGID_146_" d="M73.43,44.33c-0.21,2.18-1.27,4.3-3.18,5.79l-23,17.95c-5.83,4.55-14,4.59-19.87,0.09L4.44,50.61
			c-2.08-1.59-3.18-3.92-3.28-6.29H1.16v7.27l0,0.05c-0.03,2.53,1.06,5.06,3.28,6.76l22.93,17.54c5.87,4.49,14.04,4.45,19.87-0.09
			l23-17.95c2.05-1.6,3.12-3.91,3.22-6.25l0-0.04l-0.01-7.29H73.43z"/>
	</defs>
	<clipPath id="SVGID_40_">
		<use xlink:href="#SVGID_146_"  style="overflow:visible;"/>
	</clipPath>
	<defs>
		<filter id="Adobe_OpacityMaskFilter_9_" filterUnits="userSpaceOnUse" x="1.13" y="44.33" width="72.34" height="36.12">
			<feColorMatrix  type="matrix" values="1 0 0 0 0  0 1 0 0 0  0 0 1 0 0  0 0 0 1 0"/>
		</filter>
	</defs>
	<mask maskUnits="userSpaceOnUse" x="1.13" y="44.33" width="72.34" height="36.12" id="SVGID_41_">
		<g class="st34">
			
				<linearGradient id="SVGID_42_" gradientUnits="userSpaceOnUse" x1="-198.3958" y1="891.0474" x2="-197.2934" y2="891.0474" gradientTransform="matrix(65.1169 0 0 -65.1169 12920.0391 58084.6211)">
				<stop  offset="0" style="stop-color:#000000"/>
				<stop  offset="0.8109" style="stop-color:#000000"/>
				<stop  offset="1" style="stop-color:#666666"/>
			</linearGradient>
			<rect x="1.13" y="44.33" class="st35" width="72.34" height="36.12"/>
		</g>
	</mask>
	
		<linearGradient id="SVGID_43_" gradientUnits="userSpaceOnUse" x1="-198.3958" y1="891.0474" x2="-197.2934" y2="891.0474" gradientTransform="matrix(65.1169 0 0 -65.1169 12920.041 58084.625)">
		<stop  offset="0" style="stop-color:#0047BA"/>
		<stop  offset="0.8109" style="stop-color:#0047BA"/>
		<stop  offset="1" style="stop-color:#0047BA"/>
	</linearGradient>
	<rect x="1.13" y="44.33" class="st36" width="72.34" height="36.12"/>
</g>
<g>
	<defs>
		<path id="SVGID_151_" d="M73.43,28.72c-0.21,2.18-1.27,4.3-3.18,5.79l-23,17.95c-5.83,4.55-14,4.59-19.87,0.09L4.44,35
			c-2.08-1.59-3.18-3.92-3.28-6.29H1.16v7.27l0,0.05c-0.03,2.53,1.06,5.07,3.28,6.76l22.93,17.54c5.87,4.49,14.04,4.45,19.87-0.09
			l23-17.95c2.05-1.6,3.12-3.91,3.22-6.25l0-0.04l-0.01-7.29H73.43z"/>
	</defs>
	<clipPath id="SVGID_44_">
		<use xlink:href="#SVGID_151_"  style="overflow:visible;"/>
	</clipPath>
	<defs>
		<filter id="Adobe_OpacityMaskFilter_10_" filterUnits="userSpaceOnUse" x="1.13" y="28.72" width="72.34" height="36.12">
			<feColorMatrix  type="matrix" values="1 0 0 0 0  0 1 0 0 0  0 0 1 0 0  0 0 0 1 0"/>
		</filter>
	</defs>
	<mask maskUnits="userSpaceOnUse" x="1.13" y="28.72" width="72.34" height="36.12" id="SVGID_45_">
		<g class="st37">
			
				<linearGradient id="SVGID_46_" gradientUnits="userSpaceOnUse" x1="-198.4481" y1="889.7966" x2="-197.3457" y2="889.7966" gradientTransform="matrix(49.1066 0 0 -49.1066 9746.2451 43741.7031)">
				<stop  offset="0" style="stop-color:#000000"/>
				<stop  offset="0.5386" style="stop-color:#808080"/>
				<stop  offset="0.792" style="stop-color:#373737"/>
				<stop  offset="1" style="stop-color:#000000"/>
			</linearGradient>
			<rect x="1.13" y="28.72" class="st38" width="72.34" height="36.12"/>
		</g>
	</mask>
	
		<linearGradient id="SVGID_47_" gradientUnits="userSpaceOnUse" x1="-198.4481" y1="889.7966" x2="-197.3457" y2="889.7966" gradientTransform="matrix(49.1067 0 0 -49.1067 9746.2461 43741.707)">
		<stop  offset="0" style="stop-color:#0047BA"/>
		<stop  offset="0.5386" style="stop-color:#FEFEFE"/>
		<stop  offset="0.644" style="stop-color:#C1D2EE"/>
		<stop  offset="0.8916" style="stop-color:#376FC9"/>
		<stop  offset="1" style="stop-color:#0047BA"/>
	</linearGradient>
	<rect x="1.13" y="28.72" class="st39" width="72.34" height="36.12"/>
</g>
<g>
	<defs>
		<path id="SVGID_156_" d="M73.43,36.52c-0.21,2.18-1.27,4.3-3.18,5.79l-23,17.95c-5.83,4.55-14,4.59-19.87,0.09L4.44,42.8
			c-2.08-1.59-3.18-3.92-3.28-6.29H1.16v7.27l0,0.05c-0.03,2.53,1.06,5.06,3.28,6.76l22.93,17.54c5.87,4.49,14.04,4.45,19.87-0.09
			l23-17.95c2.05-1.6,3.12-3.91,3.22-6.25l0-0.04l-0.01-7.29H73.43z"/>
	</defs>
	<clipPath id="SVGID_48_">
		<use xlink:href="#SVGID_156_"  style="overflow:visible;"/>
	</clipPath>
	<defs>
		<filter id="Adobe_OpacityMaskFilter_11_" filterUnits="userSpaceOnUse" x="1.13" y="36.52" width="72.34" height="36.12">
			<feColorMatrix  type="matrix" values="1 0 0 0 0  0 1 0 0 0  0 0 1 0 0  0 0 0 1 0"/>
		</filter>
	</defs>
	<mask maskUnits="userSpaceOnUse" x="1.13" y="36.52" width="72.34" height="36.12" id="SVGID_49_">
		<g class="st40">
			
				<linearGradient id="SVGID_50_" gradientUnits="userSpaceOnUse" x1="-198.4492" y1="889.7532" x2="-197.3469" y2="889.7532" gradientTransform="matrix(48.8374 0 0 -48.8374 9692.8613 43507.7695)">
				<stop  offset="0" style="stop-color:#000000"/>
				<stop  offset="0.5386" style="stop-color:#808080"/>
				<stop  offset="0.792" style="stop-color:#373737"/>
				<stop  offset="1" style="stop-color:#000000"/>
			</linearGradient>
			<rect x="1.13" y="36.52" class="st41" width="72.34" height="36.12"/>
		</g>
	</mask>
	
		<linearGradient id="SVGID_51_" gradientUnits="userSpaceOnUse" x1="-198.4492" y1="889.7532" x2="-197.3469" y2="889.7532" gradientTransform="matrix(48.8374 0 0 -48.8374 9692.8633 43507.7734)">
		<stop  offset="0" style="stop-color:#0047BA"/>
		<stop  offset="0.5386" style="stop-color:#FEFEFE"/>
		<stop  offset="0.644" style="stop-color:#C1D2EE"/>
		<stop  offset="0.8916" style="stop-color:#376FC9"/>
		<stop  offset="1" style="stop-color:#0047BA"/>
	</linearGradient>
	<rect x="1.13" y="36.52" class="st42" width="72.34" height="36.12"/>
</g>
<g>
	<defs>
		<path id="SVGID_161_" d="M73.43,44.33c-0.21,2.18-1.27,4.3-3.18,5.79l-23,17.95c-5.83,4.55-14,4.59-19.87,0.09L4.44,50.61
			c-2.08-1.59-3.18-3.92-3.28-6.29H1.16v7.27l0,0.05c-0.03,2.53,1.06,5.06,3.28,6.76l22.93,17.54c5.87,4.49,14.04,4.45,19.87-0.09
			l23-17.95c2.05-1.6,3.12-3.91,3.22-6.25l0-0.04l-0.01-7.29H73.43z"/>
	</defs>
	<clipPath id="SVGID_52_">
		<use xlink:href="#SVGID_161_"  style="overflow:visible;"/>
	</clipPath>
	<defs>
		<filter id="Adobe_OpacityMaskFilter_12_" filterUnits="userSpaceOnUse" x="1.13" y="44.33" width="72.34" height="36.12">
			<feColorMatrix  type="matrix" values="1 0 0 0 0  0 1 0 0 0  0 0 1 0 0  0 0 0 1 0"/>
		</filter>
	</defs>
	<mask maskUnits="userSpaceOnUse" x="1.13" y="44.33" width="72.34" height="36.12" id="SVGID_53_">
		<g class="st43">
			
				<linearGradient id="SVGID_54_" gradientUnits="userSpaceOnUse" x1="-198.4481" y1="889.7671" x2="-197.3457" y2="889.7671" gradientTransform="matrix(49.1069 0 0 -49.1069 9746.292 43756.0742)">
				<stop  offset="0" style="stop-color:#000000"/>
				<stop  offset="0.5386" style="stop-color:#808080"/>
				<stop  offset="0.792" style="stop-color:#373737"/>
				<stop  offset="1" style="stop-color:#000000"/>
			</linearGradient>
			<rect x="1.13" y="44.33" class="st44" width="72.34" height="36.12"/>
		</g>
	</mask>
	
		<linearGradient id="SVGID_55_" gradientUnits="userSpaceOnUse" x1="-198.4481" y1="889.7671" x2="-197.3457" y2="889.7671" gradientTransform="matrix(49.1069 0 0 -49.1069 9746.292 43756.0742)">
		<stop  offset="0" style="stop-color:#0047BA"/>
		<stop  offset="0.5386" style="stop-color:#FEFEFE"/>
		<stop  offset="0.644" style="stop-color:#C1D2EE"/>
		<stop  offset="0.8916" style="stop-color:#376FC9"/>
		<stop  offset="1" style="stop-color:#0047BA"/>
	</linearGradient>
	<rect x="1.13" y="44.33" class="st45" width="72.34" height="36.12"/>
</g>
<g>
	<defs>
		<path id="SVGID_166_" d="M73.43,28.72c-0.21,2.18-1.27,4.3-3.18,5.79l-23,17.95c-5.83,4.55-14,4.59-19.87,0.09L4.44,35
			c-2.08-1.59-3.18-3.92-3.28-6.29H1.16v7.27l0,0.05c-0.03,2.53,1.06,5.07,3.28,6.76l22.93,17.54c5.87,4.49,14.04,4.45,19.87-0.09
			l23-17.95c2.05-1.6,3.12-3.91,3.22-6.25l0-0.04l-0.01-7.29H73.43z"/>
	</defs>
	<clipPath id="SVGID_56_">
		<use xlink:href="#SVGID_166_"  style="overflow:visible;"/>
	</clipPath>
	<defs>
		<filter id="Adobe_OpacityMaskFilter_13_" filterUnits="userSpaceOnUse" x="1.13" y="28.72" width="72.34" height="36.12">
			<feColorMatrix  type="matrix" values="1 0 0 0 0  0 1 0 0 0  0 0 1 0 0  0 0 0 1 0"/>
		</filter>
	</defs>
	<mask maskUnits="userSpaceOnUse" x="1.13" y="28.72" width="72.34" height="36.12" id="SVGID_57_">
		<g class="st46">
			
				<linearGradient id="SVGID_58_" gradientUnits="userSpaceOnUse" x1="-198.4481" y1="889.7966" x2="-197.3457" y2="889.7966" gradientTransform="matrix(49.1066 0 0 -49.1066 9746.2451 43741.7031)">
				<stop  offset="0" style="stop-color:#000000"/>
				<stop  offset="0.5983" style="stop-color:#000000"/>
				<stop  offset="0.6997" style="stop-color:#B3B3B3"/>
				<stop  offset="0.7654" style="stop-color:#373737"/>
				<stop  offset="0.7975" style="stop-color:#000000"/>
				<stop  offset="1" style="stop-color:#000000"/>
			</linearGradient>
			<rect x="1.13" y="28.72" class="st47" width="72.34" height="36.12"/>
		</g>
	</mask>
	
		<linearGradient id="SVGID_59_" gradientUnits="userSpaceOnUse" x1="-198.4481" y1="889.7966" x2="-197.3457" y2="889.7966" gradientTransform="matrix(49.1067 0 0 -49.1067 9746.2461 43741.707)">
		<stop  offset="0" style="stop-color:#0047BA"/>
		<stop  offset="0.5983" style="stop-color:#0047BA"/>
		<stop  offset="0.6997" style="stop-color:#0047BA"/>
		<stop  offset="0.7975" style="stop-color:#0047BA"/>
		<stop  offset="1" style="stop-color:#0047BA"/>
	</linearGradient>
	<rect x="1.13" y="28.72" class="st48" width="72.34" height="36.12"/>
</g>
<g>
	<defs>
		<path id="SVGID_171_" d="M73.43,36.52c-0.21,2.18-1.27,4.3-3.18,5.79l-23,17.95c-5.83,4.55-14,4.59-19.87,0.09L4.44,42.8
			c-2.08-1.59-3.18-3.92-3.28-6.29H1.16v7.27l0,0.05c-0.03,2.53,1.06,5.06,3.28,6.76l22.93,17.54c5.87,4.49,14.04,4.45,19.87-0.09
			l23-17.95c2.05-1.6,3.12-3.91,3.22-6.25l0-0.04l-0.01-7.29H73.43z"/>
	</defs>
	<clipPath id="SVGID_60_">
		<use xlink:href="#SVGID_171_"  style="overflow:visible;"/>
	</clipPath>
	<defs>
		<filter id="Adobe_OpacityMaskFilter_14_" filterUnits="userSpaceOnUse" x="1.13" y="36.52" width="72.34" height="36.12">
			<feColorMatrix  type="matrix" values="1 0 0 0 0  0 1 0 0 0  0 0 1 0 0  0 0 0 1 0"/>
		</filter>
	</defs>
	<mask maskUnits="userSpaceOnUse" x="1.13" y="36.52" width="72.34" height="36.12" id="SVGID_61_">
		<g class="st49">
			
				<linearGradient id="SVGID_62_" gradientUnits="userSpaceOnUse" x1="-198.4492" y1="889.7532" x2="-197.3469" y2="889.7532" gradientTransform="matrix(48.8374 0 0 -48.8374 9692.8613 43507.7695)">
				<stop  offset="0" style="stop-color:#000000"/>
				<stop  offset="0.5983" style="stop-color:#000000"/>
				<stop  offset="0.6997" style="stop-color:#B3B3B3"/>
				<stop  offset="0.7654" style="stop-color:#373737"/>
				<stop  offset="0.7975" style="stop-color:#000000"/>
				<stop  offset="1" style="stop-color:#000000"/>
			</linearGradient>
			<rect x="1.13" y="36.52" class="st50" width="72.34" height="36.12"/>
		</g>
	</mask>
	
		<linearGradient id="SVGID_63_" gradientUnits="userSpaceOnUse" x1="-198.4492" y1="889.7532" x2="-197.3469" y2="889.7532" gradientTransform="matrix(48.8374 0 0 -48.8374 9692.8633 43507.7734)">
		<stop  offset="0" style="stop-color:#0047BA"/>
		<stop  offset="0.5983" style="stop-color:#0047BA"/>
		<stop  offset="0.6997" style="stop-color:#0047BA"/>
		<stop  offset="0.7975" style="stop-color:#0047BA"/>
		<stop  offset="1" style="stop-color:#0047BA"/>
	</linearGradient>
	<rect x="1.13" y="36.52" class="st51" width="72.34" height="36.12"/>
</g>
<g>
	<defs>
		<path id="SVGID_176_" d="M73.43,44.33c-0.21,2.18-1.27,4.3-3.18,5.79l-23,17.95c-5.83,4.55-14,4.59-19.87,0.09L4.44,50.61
			c-2.08-1.59-3.18-3.92-3.28-6.29H1.16v7.27l0,0.05c-0.03,2.53,1.06,5.06,3.28,6.76l22.93,17.54c5.87,4.49,14.04,4.45,19.87-0.09
			l23-17.95c2.05-1.6,3.12-3.91,3.22-6.25l0-0.04l-0.01-7.29H73.43z"/>
	</defs>
	<clipPath id="SVGID_64_">
		<use xlink:href="#SVGID_176_"  style="overflow:visible;"/>
	</clipPath>
	<defs>
		<filter id="Adobe_OpacityMaskFilter_15_" filterUnits="userSpaceOnUse" x="1.13" y="44.33" width="72.34" height="36.12">
			<feColorMatrix  type="matrix" values="1 0 0 0 0  0 1 0 0 0  0 0 1 0 0  0 0 0 1 0"/>
		</filter>
	</defs>
	<mask maskUnits="userSpaceOnUse" x="1.13" y="44.33" width="72.34" height="36.12" id="SVGID_65_">
		<g class="st52">
			
				<linearGradient id="SVGID_66_" gradientUnits="userSpaceOnUse" x1="-198.4481" y1="889.7671" x2="-197.3457" y2="889.7671" gradientTransform="matrix(49.1069 0 0 -49.1069 9746.292 43756.0742)">
				<stop  offset="0" style="stop-color:#000000"/>
				<stop  offset="0.5983" style="stop-color:#000000"/>
				<stop  offset="0.6997" style="stop-color:#B3B3B3"/>
				<stop  offset="0.7654" style="stop-color:#373737"/>
				<stop  offset="0.7975" style="stop-color:#000000"/>
				<stop  offset="1" style="stop-color:#000000"/>
			</linearGradient>
			<rect x="1.13" y="44.33" class="st53" width="72.34" height="36.12"/>
		</g>
	</mask>
	
		<linearGradient id="SVGID_67_" gradientUnits="userSpaceOnUse" x1="-198.4481" y1="889.7671" x2="-197.3457" y2="889.7671" gradientTransform="matrix(49.1069 0 0 -49.1069 9746.292 43756.0742)">
		<stop  offset="0" style="stop-color:#0047BA"/>
		<stop  offset="0.5983" style="stop-color:#0047BA"/>
		<stop  offset="0.6997" style="stop-color:#0047BA"/>
		<stop  offset="0.7975" style="stop-color:#0047BA"/>
		<stop  offset="1" style="stop-color:#0047BA"/>
	</linearGradient>
	<rect x="1.13" y="44.33" class="st54" width="72.34" height="36.12"/>
</g>
<path class="st8" d="M39.52,38.98l-8.49,0l-3.17,4.12c2.87,1.04,6.07,1.62,9.45,1.62c12.48,0,22.59-7.95,22.59-17.75
	c0-9.8-10.11-17.75-22.59-17.75c-12.48,0-22.59,7.95-22.59,17.75c0,5.1,2.73,9.69,7.11,12.93l1.08-1.41l4.16-5.41l0.01-0.01l0,0.01
	l8.48,0.01l4.28-5.56h0l1.01-1.31l-8.49,0l3.53-4.59l2.29,0l6.2,0l5.28-6.86l3.95,5.9l-5.28,6.85l-6.62,0l3.08,4.6L39.52,38.98z"/>
<path class="st55" d="M39.52,38.98l-3.95-5.9l-8.48-0.01l0-0.01l-0.01,0.01l-4.16,5.41l-1.08,1.41c1.77,1.31,3.8,2.39,6.03,3.2
	l3.17-4.12L39.52,38.98z"/>
<polygon class="st55" points="44.39,21.63 38.19,21.63 35.9,21.63 32.37,26.21 40.85,26.22 39.85,27.52 39.85,27.52 40.85,26.22 
	41.72,27.52 48.34,27.53 "/>
<polygon class="st0" points="49.67,14.77 44.39,21.63 48.34,27.53 53.61,20.67 "/>
<polygon class="st0" points="40.85,26.22 35.57,33.08 39.52,38.98 44.8,32.12 "/>
</svg>
