<?xml version="1.0" encoding="utf-8"?>
<!-- Generator: Adobe Illustrator 22.1.0, SVG Export Plug-In . SVG Version: 6.00 Build 0)  -->
<svg version="1.1" baseProfile="basic" id="Capa_1" xmlns="http://www.w3.org/2000/svg" xmlns:xlink="http://www.w3.org/1999/xlink"
	 x="0px" y="0px" width="199px" height="58.5px" viewBox="0 0 199 58.5" xml:space="preserve">
<g>
	<g>
		<g>
			<path fill="#EB5D0B" d="M123.703,49.686c-0.2-0.133-0.417-0.2-0.633-0.2c-0.52,0-0.861,0.295-0.861,0.758
				c0,0.778,1.228,0.845,1.228,1.432c0,0.158-0.147,0.358-0.462,0.358c-0.28,0-0.542-0.145-0.75-0.412v0.516
				c0.237,0.179,0.488,0.262,0.796,0.262c0.457,0,0.795-0.325,0.795-0.771c0-0.904-1.228-0.895-1.228-1.441
				c0-0.2,0.187-0.337,0.45-0.337c0.191,0,0.424,0.067,0.666,0.295V49.686z"/>
			<path fill="#EB5D0B" d="M117.725,50.131l0.458,1.029H117.3L117.725,50.131z M117.875,49.507h-0.287l-1.22,2.856h0.416
				l0.358-0.837h1.207l0.379,0.837h0.416L117.875,49.507z"/>
			<rect x="112.746" y="49.523" fill-rule="evenodd" clip-rule="evenodd" fill="#EB5D0B" width="0.408" height="2.84"/>
			<path fill="#EB5D0B" d="M107.747,49.874h0.262c0.395,0,0.554,0.163,0.558,0.429c0.004,0.237-0.12,0.462-0.558,0.462h-0.262
				V49.874z M107.338,49.523v2.84h0.408v-1.232h0.17c0.208,0,0.379,0.067,0.754,0.649l0.375,0.583h0.487
				c-0.195-0.271-0.267-0.366-0.387-0.562c-0.216-0.354-0.375-0.616-0.632-0.786c0.304-0.121,0.474-0.367,0.474-0.696
				c0-0.491-0.358-0.796-0.933-0.796H107.338z"/>
			<polygon fill="#EB5D0B" points="104.05,49.523 101.676,49.523 101.676,49.89 102.659,49.89 102.659,52.363 103.067,52.363 
				103.067,49.89 104.05,49.89 			"/>
			<path fill="#EB5D0B" d="M98.463,49.686c-0.2-0.133-0.417-0.2-0.633-0.2c-0.521,0-0.862,0.295-0.862,0.758
				c0,0.778,1.228,0.845,1.228,1.432c0,0.158-0.145,0.358-0.462,0.358c-0.279,0-0.541-0.145-0.749-0.412v0.516
				c0.237,0.179,0.487,0.262,0.796,0.262c0.458,0,0.795-0.325,0.795-0.771c0-0.904-1.228-0.895-1.228-1.441
				c0-0.2,0.187-0.337,0.45-0.337c0.191,0,0.425,0.067,0.666,0.295V49.686z"/>
			<path fill="#EB5D0B" d="M93.655,49.523h-0.408v1.654c0,0.266-0.033,0.474-0.179,0.621c-0.129,0.129-0.354,0.229-0.666,0.229
				c-0.246,0-0.449-0.079-0.612-0.242c-0.13-0.129-0.171-0.262-0.171-0.583v-1.679h-0.408v1.766c0,0.775,0.583,1.112,1.182,1.112
				c0.845,0,1.262-0.458,1.262-1.154V49.523z"/>
			<path fill="#EB5D0B" d="M85.661,49.89h0.629c0.795,0,1.157,0.483,1.157,1.053c0,0.35-0.212,1.054-1.137,1.054h-0.65V49.89z
				 M85.253,52.363h1.107c0.937,0,1.507-0.691,1.507-1.42c0-0.67-0.462-1.42-1.512-1.42h-1.103V52.363z"/>
			<polygon fill="#EB5D0B" points="81.728,49.523 81.345,49.523 81.345,51.723 79.42,49.523 79.096,49.523 79.096,52.363 
				79.479,52.363 79.479,50.178 81.378,52.363 81.728,52.363 			"/>
			<rect x="75.167" y="49.523" fill-rule="evenodd" clip-rule="evenodd" fill="#EB5D0B" width="0.408" height="2.84"/>
			<path fill="#EB5D0B" d="M121.202,56.669c0-0.625,0.471-1.082,1.104-1.082c0.637,0,1.108,0.458,1.108,1.082
				c0,0.62-0.471,1.083-1.108,1.083C121.673,57.752,121.202,57.289,121.202,56.669z M120.782,56.669c0,0.77,0.586,1.457,1.515,1.457
				c0.962,0,1.536-0.691,1.536-1.457c0-0.791-0.591-1.457-1.528-1.457C121.386,55.212,120.782,55.882,120.782,56.669z"/>
			<rect x="117.962" y="55.249" fill-rule="evenodd" clip-rule="evenodd" fill="#EB5D0B" width="0.408" height="2.84"/>
			<path fill="#EB5D0B" d="M114.115,56.831h0.491c0.429,0,0.629,0.184,0.629,0.442c0,0.213-0.129,0.45-0.608,0.45h-0.513V56.831z
				 M114.115,55.615h0.375c0.375,0,0.496,0.183,0.496,0.396c0,0.304-0.196,0.453-0.599,0.453h-0.272V55.615z M113.707,58.088h0.974
				c0.712,0,0.974-0.408,0.974-0.758c0-0.383-0.258-0.661-0.682-0.741v-0.008c0.296-0.121,0.433-0.312,0.433-0.608
				c0-0.358-0.262-0.725-0.875-0.725h-0.824V58.088z"/>
			<polygon fill="#EB5D0B" points="111.188,55.249 110.809,55.249 109.864,56.415 108.923,55.249 108.539,55.249 108.539,58.088 
				108.948,58.088 108.948,55.878 108.956,55.878 109.83,56.977 109.897,56.977 110.772,55.878 110.779,55.878 110.779,58.088 
				111.188,58.088 			"/>
			<path fill="#EB5D0B" d="M104.866,55.857l0.458,1.029h-0.883L104.866,55.857z M105.017,55.233h-0.288l-1.22,2.855h0.417
				l0.358-0.836h1.207l0.379,0.836h0.416L105.017,55.233z"/>
			<path fill="#EB5D0B" d="M101.386,55.445c-0.387-0.162-0.683-0.233-0.975-0.233c-0.903,0-1.557,0.633-1.557,1.499
				c0,0.595,0.467,1.416,1.533,1.416c0.445,0,0.749-0.104,1.028-0.25v-0.445c-0.321,0.208-0.67,0.321-0.991,0.321
				c-0.683,0-1.149-0.442-1.149-1.078c0-0.625,0.483-1.087,1.133-1.087c0.329,0,0.628,0.091,0.979,0.295V55.445z"/>
			<polygon fill="#EB5D0B" points="96.672,55.249 95.061,55.249 95.061,58.088 96.71,58.088 96.71,57.722 95.469,57.722 
				95.469,56.84 96.631,56.84 96.631,56.473 95.469,56.473 95.469,55.615 96.672,55.615 			"/>
			<path fill="#EB5D0B" d="M91.138,55.599h0.262c0.396,0,0.554,0.162,0.559,0.429c0.004,0.237-0.121,0.463-0.559,0.463h-0.262
				V55.599z M90.731,55.249v2.84h0.408v-1.232h0.171c0.208,0,0.379,0.067,0.754,0.65l0.375,0.583h0.487
				c-0.196-0.27-0.266-0.366-0.387-0.561c-0.217-0.354-0.375-0.616-0.633-0.787c0.304-0.12,0.475-0.367,0.475-0.695
				c0-0.492-0.358-0.796-0.933-0.796H90.731z"/>
			<polygon fill="#EB5D0B" points="84.544,55.249 84.135,55.249 84.135,58.088 85.826,58.088 85.826,57.722 84.544,57.722 			"/>
			<polygon fill="#EB5D0B" points="81.72,55.249 80.109,55.249 80.109,58.088 81.758,58.088 81.758,57.722 80.517,57.722 
				80.517,56.84 81.679,56.84 81.679,56.473 80.517,56.473 80.517,55.615 81.72,55.615 			"/>
			<path fill="#EB5D0B" d="M75.574,55.615h0.629c0.795,0,1.158,0.483,1.158,1.054c0,0.35-0.212,1.053-1.137,1.053h-0.65V55.615z
				 M75.167,58.088h1.107c0.937,0,1.507-0.69,1.507-1.419c0-0.671-0.462-1.421-1.511-1.421h-1.103V58.088z"/>
		</g>
		<g>
			<rect x="75.405" y="0.374" fill="#FFFFFF" stroke="#EB5D0B" stroke-width="0.75" width="48.203" height="46.157"/>
			<path fill="#EB5D0B" d="M75.461,11.651c0-6.187,5.015-11.202,11.202-11.202c6.186,0,11.201,5.016,11.201,11.202
				c0,6.186-5.015,11.201-11.201,11.201C80.475,22.852,75.461,17.837,75.461,11.651z"/>
			<path fill="#858584" d="M101.893,14.735h3.286c2.445,0,3.706,1.09,3.706,3.228c0,2.432-1.757,3.27-3.553,3.27h-3.439V14.735z
				 M95.399,9.496v28.588h6.495V26.473h1.872c3.515,0,4.547,5.491,7.336,11.611h7.144c-3.668-8.384-4.47-11.905-7.144-13.372
				c2.98-1.508,4.47-3.856,4.47-7c0-4.276-3.171-8.216-8.52-8.216H95.399z"/>
			<rect x="83.83" y="9.496" fill-rule="evenodd" clip-rule="evenodd" fill="#858584" width="6.495" height="28.588"/>
		</g>
	</g>
</g>
</svg>
